<svg width="42" height="42" viewBox="0 0 42 42" fill="none" xmlns="http://www.w3.org/2000/svg">
<path d="M14.0812 20.9998C14.0812 17.1798 17.179 14.0822 21.0013 14.0822C24.8236 14.0822 27.923 17.1798 27.923 20.9998C27.923 24.8198 24.8236 27.9173 21.0013 27.9173C17.179 27.9173 14.0812 24.8198 14.0812 20.9998ZM10.3395 20.9998C10.3395 26.8848 15.1127 31.6552 21.0013 31.6552C26.8898 31.6552 31.663 26.8848 31.663 20.9998C31.663 15.1148 26.8898 10.3444 21.0013 10.3444C15.1127 10.3444 10.3395 15.1148 10.3395 20.9998ZM29.5935 9.9219C29.5933 10.4144 29.7392 10.8959 30.0129 11.3055C30.2865 11.7151 30.6755 12.0344 31.1307 12.2231C31.5859 12.4117 32.0869 12.4613 32.5702 12.3654C33.0536 12.2695 33.4977 12.0325 33.8463 11.6844C34.1949 11.3363 34.4323 10.8927 34.5287 10.4097C34.625 9.92668 34.5759 9.42598 34.3875 8.97089C34.1991 8.51581 33.8799 8.12678 33.4702 7.85299C33.0606 7.57921 32.5789 7.43298 32.0861 7.43278H32.0851C31.4246 7.43309 30.7911 7.6954 30.324 8.16211C29.8568 8.62881 29.5941 9.26175 29.5935 9.9219V9.9219ZM12.6128 37.8906C10.5885 37.7985 9.48816 37.4615 8.75696 37.1768C7.78755 36.7996 7.09588 36.3504 6.36866 35.6246C5.64144 34.8988 5.19129 34.2082 4.81555 33.2394C4.53051 32.509 4.19332 31.409 4.10129 29.3859C4.00063 27.1985 3.98053 26.5415 3.98053 21C3.98053 15.4584 4.00229 14.8032 4.10129 12.6141C4.19348 10.5909 4.53317 9.49311 4.81555 8.76051C5.19295 7.79169 5.64244 7.10043 6.36866 6.37365C7.09488 5.64686 7.78589 5.19698 8.75696 4.82147C9.48783 4.5366 10.5885 4.19961 12.6128 4.10764C14.8015 4.00704 15.4589 3.98695 21.0013 3.98695C26.5436 3.98695 27.2017 4.0087 29.3922 4.10764C31.4165 4.19977 32.515 4.53926 33.248 4.82147C34.2174 5.19698 34.9091 5.64786 35.6363 6.37365C36.3636 7.09944 36.8121 7.79169 37.1894 8.76051C37.4745 9.49095 37.8117 10.5909 37.9037 12.6141C38.0044 14.8032 38.0245 15.4584 38.0245 21C38.0245 26.5415 38.0044 27.1967 37.9037 29.3859C37.8115 31.409 37.4727 32.5086 37.1894 33.2394C36.8121 34.2082 36.3626 34.8995 35.6363 35.6246C34.9101 36.3497 34.2174 36.7996 33.248 37.1768C32.5172 37.4616 31.4165 37.7986 29.3922 37.8906C27.2036 37.9912 26.5461 38.0113 21.0013 38.0113C15.4564 38.0113 14.8008 37.9912 12.6128 37.8906V37.8906ZM12.4409 0.374447C10.2305 0.475048 8.72008 0.825325 7.40102 1.33829C6.03495 1.86802 4.87851 2.5787 3.7229 3.73179C2.56729 4.88489 1.85801 6.04246 1.32796 7.40771C0.814685 8.72681 0.464198 10.2355 0.363536 12.4446C0.261214 14.6571 0.237793 15.3645 0.237793 20.9998C0.237793 26.6351 0.261214 27.3425 0.363536 29.555C0.464198 31.7643 0.814685 33.2728 1.32796 34.5919C1.85801 35.9563 2.56745 37.1152 3.7229 38.2678C4.87834 39.4204 6.03495 40.1301 7.40102 40.6613C8.72257 41.1743 10.2305 41.5245 12.4409 41.6251C14.6559 41.7257 15.3626 41.7508 21.0013 41.7508C26.6399 41.7508 27.3477 41.7274 29.5616 41.6251C31.7722 41.5245 33.2816 41.1743 34.6015 40.6613C35.9667 40.1301 37.124 39.4209 38.2796 38.2678C39.4352 37.1147 40.143 35.9563 40.6746 34.5919C41.1878 33.2728 41.54 31.7641 41.639 29.555C41.7396 27.3408 41.7631 26.6351 41.7631 20.9998C41.7631 15.3645 41.7396 14.6571 41.639 12.4446C41.5383 10.2353 41.1878 8.72598 40.6746 7.40771C40.143 6.04329 39.4334 4.88671 38.2796 3.73179C37.1258 2.57688 35.9667 1.86802 34.6032 1.33829C33.2816 0.825325 31.772 0.473388 29.5633 0.374447C27.3494 0.273847 26.6416 0.248779 21.0029 0.248779C15.3642 0.248779 14.6559 0.272186 12.4409 0.374447Z" fill="url(#paint0_radial_103_368)"/>
<path d="M14.0812 20.9998C14.0812 17.1798 17.179 14.0822 21.0013 14.0822C24.8236 14.0822 27.923 17.1798 27.923 20.9998C27.923 24.8198 24.8236 27.9173 21.0013 27.9173C17.179 27.9173 14.0812 24.8198 14.0812 20.9998ZM10.3395 20.9998C10.3395 26.8848 15.1127 31.6552 21.0013 31.6552C26.8898 31.6552 31.663 26.8848 31.663 20.9998C31.663 15.1148 26.8898 10.3444 21.0013 10.3444C15.1127 10.3444 10.3395 15.1148 10.3395 20.9998ZM29.5935 9.9219C29.5933 10.4144 29.7392 10.8959 30.0129 11.3055C30.2865 11.7151 30.6755 12.0344 31.1307 12.2231C31.5859 12.4117 32.0869 12.4613 32.5702 12.3654C33.0536 12.2695 33.4977 12.0325 33.8463 11.6844C34.1949 11.3363 34.4323 10.8927 34.5287 10.4097C34.625 9.92668 34.5759 9.42598 34.3875 8.97089C34.1991 8.51581 33.8799 8.12678 33.4702 7.85299C33.0606 7.57921 32.5789 7.43298 32.0861 7.43278H32.0851C31.4246 7.43309 30.7911 7.6954 30.324 8.16211C29.8568 8.62881 29.5941 9.26175 29.5935 9.9219V9.9219ZM12.6128 37.8906C10.5885 37.7985 9.48816 37.4615 8.75696 37.1768C7.78755 36.7996 7.09588 36.3504 6.36866 35.6246C5.64144 34.8988 5.19129 34.2082 4.81555 33.2394C4.53051 32.509 4.19332 31.409 4.10129 29.3859C4.00063 27.1985 3.98053 26.5415 3.98053 21C3.98053 15.4584 4.00229 14.8032 4.10129 12.6141C4.19348 10.5909 4.53317 9.49311 4.81555 8.76051C5.19295 7.79169 5.64244 7.10043 6.36866 6.37365C7.09488 5.64686 7.78589 5.19698 8.75696 4.82147C9.48783 4.5366 10.5885 4.19961 12.6128 4.10764C14.8015 4.00704 15.4589 3.98695 21.0013 3.98695C26.5436 3.98695 27.2017 4.0087 29.3922 4.10764C31.4165 4.19977 32.515 4.53926 33.248 4.82147C34.2174 5.19698 34.9091 5.64786 35.6363 6.37365C36.3636 7.09944 36.8121 7.79169 37.1894 8.76051C37.4745 9.49095 37.8117 10.5909 37.9037 12.6141C38.0044 14.8032 38.0245 15.4584 38.0245 21C38.0245 26.5415 38.0044 27.1967 37.9037 29.3859C37.8115 31.409 37.4727 32.5086 37.1894 33.2394C36.8121 34.2082 36.3626 34.8995 35.6363 35.6246C34.9101 36.3497 34.2174 36.7996 33.248 37.1768C32.5172 37.4616 31.4165 37.7986 29.3922 37.8906C27.2036 37.9912 26.5461 38.0113 21.0013 38.0113C15.4564 38.0113 14.8008 37.9912 12.6128 37.8906V37.8906ZM12.4409 0.374447C10.2305 0.475048 8.72008 0.825325 7.40102 1.33829C6.03495 1.86802 4.87851 2.5787 3.7229 3.73179C2.56729 4.88489 1.85801 6.04246 1.32796 7.40771C0.814685 8.72681 0.464198 10.2355 0.363536 12.4446C0.261214 14.6571 0.237793 15.3645 0.237793 20.9998C0.237793 26.6351 0.261214 27.3425 0.363536 29.555C0.464198 31.7643 0.814685 33.2728 1.32796 34.5919C1.85801 35.9563 2.56745 37.1152 3.7229 38.2678C4.87834 39.4204 6.03495 40.1301 7.40102 40.6613C8.72257 41.1743 10.2305 41.5245 12.4409 41.6251C14.6559 41.7257 15.3626 41.7508 21.0013 41.7508C26.6399 41.7508 27.3477 41.7274 29.5616 41.6251C31.7722 41.5245 33.2816 41.1743 34.6015 40.6613C35.9667 40.1301 37.124 39.4209 38.2796 38.2678C39.4352 37.1147 40.143 35.9563 40.6746 34.5919C41.1878 33.2728 41.54 31.7641 41.639 29.555C41.7396 27.3408 41.7631 26.6351 41.7631 20.9998C41.7631 15.3645 41.7396 14.6571 41.639 12.4446C41.5383 10.2353 41.1878 8.72598 40.6746 7.40771C40.143 6.04329 39.4334 4.88671 38.2796 3.73179C37.1258 2.57688 35.9667 1.86802 34.6032 1.33829C33.2816 0.825325 31.772 0.473388 29.5633 0.374447C27.3494 0.273847 26.6416 0.248779 21.0029 0.248779C15.3642 0.248779 14.6559 0.272186 12.4409 0.374447Z" fill="url(#paint1_radial_103_368)"/>
<defs>
<radialGradient id="paint0_radial_103_368" cx="0" cy="0" r="1" gradientUnits="userSpaceOnUse" gradientTransform="translate(5.75489 41.9469) scale(54.2099 54.1774)">
<stop offset="0.09" stop-color="#FA8F21"/>
<stop offset="0.78" stop-color="#D82D7E"/>
</radialGradient>
<radialGradient id="paint1_radial_103_368" cx="0" cy="0" r="1" gradientUnits="userSpaceOnUse" gradientTransform="translate(25.422 43.8061) scale(42.7249 42.6993)">
<stop offset="0.64" stop-color="#8C3AAA" stop-opacity="0"/>
<stop offset="1" stop-color="#8C3AAA"/>
</radialGradient>
</defs>
</svg>
