<svg width="42" height="42" viewBox="0 0 42 42" fill="none" xmlns="http://www.w3.org/2000/svg">
<path d="M0 3.27959C0 1.6343 1.37832 0.298828 3.0774 0.298828H38.5618C40.2615 0.298828 41.6392 1.6343 41.6392 3.27959V38.9302C41.6392 40.576 40.2615 41.9105 38.5618 41.9105H3.0774C1.37849 41.9105 0 40.5762 0 38.9307V3.2791V3.27959Z" fill="#006699"/>
<path d="M12.6534 35.1223V16.3886H6.42245V35.1223H12.654H12.6534ZM9.53921 13.8313C11.7116 13.8313 13.0641 12.3928 13.0641 10.595C13.0234 8.75629 11.7116 7.35791 9.58052 7.35791C7.44797 7.35791 6.05518 8.75629 6.05518 10.5948C6.05518 12.3926 7.40715 13.8311 9.49838 13.8311H9.53872L9.53921 13.8313ZM16.1023 35.1223H22.3327V24.6617C22.3327 24.1025 22.3734 23.5419 22.538 23.1425C22.9882 22.0234 24.0134 20.865 25.7351 20.865C27.9891 20.865 28.8913 22.5827 28.8913 25.1014V35.1223H35.1216V24.381C35.1216 18.627 32.0481 15.9494 27.9488 15.9494C24.5879 15.9494 23.1118 17.8267 22.2917 19.1052H22.3332V16.3893H16.1026C16.1839 18.1467 16.1021 35.123 16.1021 35.123L16.1023 35.1223Z" fill="white"/>
</svg>
