<svg width="45" height="32" viewBox="0 0 45 32" fill="none" xmlns="http://www.w3.org/2000/svg">
<path d="M43.9163 5.54684C43.4135 3.68138 41.9263 2.20975 40.0342 1.70538C36.6129 0.800293 22.8859 0.800293 22.8859 0.800293C22.8859 0.800293 9.16593 0.800293 5.73768 1.70538C3.85249 2.20284 2.36528 3.67447 1.85558 5.54684C0.940918 8.93229 0.940918 16.0003 0.940918 16.0003C0.940918 16.0003 0.940918 23.0683 1.85558 26.4537C2.3583 28.3192 3.84551 29.7908 5.73768 30.2952C9.16593 31.2003 22.8859 31.2003 22.8859 31.2003C22.8859 31.2003 36.6129 31.2003 40.0342 30.2952C41.9193 29.7977 43.4066 28.3261 43.9163 26.4537C44.8309 23.0683 44.8309 16.0003 44.8309 16.0003C44.8309 16.0003 44.8309 8.93229 43.9163 5.54684Z" fill="#FF3000"/>
<path d="M18.5011 22.5156L29.903 16.0003L18.5011 9.48502V22.5156Z" fill="white"/>
</svg>
